<svg xmlns="http://www.w3.org/2000/svg" viewBox="0 0 1700 1080" font-family="Consolas, 'SFMono-Regular', Menlo, monospace">
  <defs>
    <marker id="arH" viewBox="0 0 10 10" refX="8.5" refY="5" markerWidth="6.5" markerHeight="6.5" orient="auto-start-reverse">
      <path d="M0,0 L10,5 L0,10 z" fill="#5b6480"/>
    </marker>
  </defs>

  <rect x="1" y="1" width="1698" height="1078" rx="14" fill="#f3f5fb" stroke="#d7dbec" stroke-width="1.5"/>

  <!-- ===== fragment frames (drawn first, under lifelines) ===== -->
  <rect x="1420" y="690" width="255" height="42" fill="none" stroke="#b5710d" stroke-width="1.5" stroke-dasharray="5 4"/>
  <text x="1428" y="683" font-size="11" font-weight="700" fill="#b5710d">opt: boot-from-volume</text>

  <rect x="20" y="908" width="430" height="82" fill="none" stroke="#3552c6" stroke-width="1.5" stroke-dasharray="5 4"/>
  <text x="28" y="901" font-size="11" font-weight="700" fill="#3552c6">loop: poll until ACTIVE</text>

  <!-- ===== lifelines ===== -->
  <g stroke="#c3c9e0" stroke-width="1.3" stroke-dasharray="4 4">
    <line x1="60" y1="82" x2="60" y2="1010"/>
    <line x1="235" y1="82" x2="235" y2="1010"/>
    <line x1="410" y1="82" x2="410" y2="1010"/>
    <line x1="585" y1="82" x2="585" y2="1010"/>
    <line x1="760" y1="82" x2="760" y2="1010"/>
    <line x1="935" y1="82" x2="935" y2="1010"/>
    <line x1="1110" y1="82" x2="1110" y2="1010"/>
    <line x1="1285" y1="82" x2="1285" y2="1010"/>
    <line x1="1460" y1="82" x2="1460" y2="1010"/>
    <line x1="1635" y1="82" x2="1635" y2="1010"/>
  </g>

  <!-- ===== lane headers ===== -->
  <g text-anchor="middle">
    <g>
      <rect x="5" y="30" width="150" height="50" rx="8" fill="#eceff8" stroke="#374066" stroke-width="1.4"/>
      <text x="60" y="52" font-size="13" font-weight="700" fill="#1a2138">Client</text>
      <text x="60" y="68" font-size="10" fill="#5b6480">CLI / SDK / Horizon</text>
    </g>
    <g>
      <rect x="160" y="30" width="150" height="50" rx="8" fill="#eef1fc" stroke="#3552c6" stroke-width="1.4"/>
      <text x="235" y="55" font-size="13" font-weight="700" fill="#1a2138">Keystone</text>
      <text x="235" y="71" font-size="10" fill="#5b6480">Identity</text>
    </g>
    <g>
      <rect x="335" y="30" width="150" height="50" rx="8" fill="#eef1fc" stroke="#3552c6" stroke-width="1.4"/>
      <text x="410" y="52" font-size="13" font-weight="700" fill="#1a2138">Nova API</text>
      <text x="410" y="68" font-size="10" fill="#5b6480">Compute</text>
    </g>
    <g>
      <rect x="510" y="30" width="150" height="50" rx="8" fill="#eef1fc" stroke="#3552c6" stroke-width="1.4"/>
      <text x="585" y="52" font-size="13" font-weight="700" fill="#1a2138">Nova Conductor</text>
      <text x="585" y="68" font-size="10" fill="#5b6480">DB proxy</text>
    </g>
    <g>
      <rect x="685" y="30" width="150" height="50" rx="8" fill="#eef1fc" stroke="#3552c6" stroke-width="1.4"/>
      <text x="760" y="52" font-size="13" font-weight="700" fill="#1a2138">Nova Scheduler</text>
      <text x="760" y="68" font-size="10" fill="#5b6480">Placement</text>
    </g>
    <g>
      <rect x="860" y="30" width="150" height="50" rx="8" fill="#fbf1e2" stroke="#b5710d" stroke-width="1.4"/>
      <text x="935" y="52" font-size="13" font-weight="700" fill="#1a2138">MariaDB</text>
      <text x="935" y="68" font-size="10" fill="#5b6480">Instance state</text>
    </g>
    <g>
      <rect x="1035" y="30" width="150" height="50" rx="8" fill="#eef1fc" stroke="#3552c6" stroke-width="1.4"/>
      <text x="1110" y="52" font-size="13" font-weight="700" fill="#1a2138">Glance</text>
      <text x="1110" y="68" font-size="10" fill="#5b6480">Image</text>
    </g>
    <g>
      <rect x="1210" y="30" width="150" height="50" rx="8" fill="#eef1fc" stroke="#3552c6" stroke-width="1.4"/>
      <text x="1285" y="52" font-size="13" font-weight="700" fill="#1a2138">Neutron</text>
      <text x="1285" y="68" font-size="10" fill="#5b6480">Network</text>
    </g>
    <g>
      <rect x="1385" y="30" width="150" height="50" rx="8" fill="#eef1fc" stroke="#3552c6" stroke-width="1.4"/>
      <text x="1460" y="52" font-size="13" font-weight="700" fill="#1a2138">Cinder</text>
      <text x="1460" y="68" font-size="10" fill="#5b6480">Block storage</text>
    </g>
    <g>
      <rect x="1560" y="30" width="150" height="50" rx="8" fill="#e9f7f3" stroke="#0f7a63" stroke-width="1.4"/>
      <text x="1635" y="52" font-size="13" font-weight="700" fill="#1a2138">Nova Compute</text>
      <text x="1635" y="68" font-size="10" fill="#5b6480">+ libvirt/KVM</text>
    </g>
  </g>

  <!-- ===== steps ===== -->
  <g font-size="11.5" fill="#5b6480" paint-order="stroke" stroke="#f3f5fb" stroke-width="5" stroke-linejoin="round">
    <text x="147" y="103" text-anchor="middle">request token</text>
    <text x="147" y="153" text-anchor="middle">scoped token</text>
    <text x="235" y="203" text-anchor="middle">POST /servers</text>
    <text x="322" y="253" text-anchor="middle">validate token</text>
    <text x="497" y="303" text-anchor="middle">instance_create</text>
    <text x="760" y="353" text-anchor="middle">INSERT (BUILDING)</text>
    <text x="235" y="403" text-anchor="middle">202 Accepted</text>
    <text x="672" y="453" text-anchor="middle">select_destinations</text>
    <text x="672" y="503" text-anchor="middle">chosen host</text>
    <text x="1110" y="553" text-anchor="middle">build_and_run_instance</text>
    <text x="1372" y="603" text-anchor="middle">GET image</text>
    <text x="1460" y="653" text-anchor="middle">allocate port / IP</text>
    <text x="1547" y="705" text-anchor="middle">create/attach volume</text>
    <text x="1635" y="782" text-anchor="middle">define &amp; start domain</text>
    <text x="1110" y="823" text-anchor="middle">update instance state</text>
    <text x="760" y="873" text-anchor="middle">UPDATE (ACTIVE)</text>
    <text x="322" y="923" text-anchor="middle">GET status (poll)</text>
    <text x="235" y="963" text-anchor="middle">200 OK · ACTIVE</text>
  </g>

  <g fill="none" stroke="#5b6480" stroke-width="2.2">
    <path d="M60,110 L232,110" marker-end="url(#arH)"/>
    <path d="M235,160 L63,160" marker-end="url(#arH)"/>
    <path d="M60,210 L407,210" marker-end="url(#arH)"/>
    <path d="M410,260 L238,260" stroke-dasharray="1.5 5" stroke-width="1.6" marker-end="url(#arH)"/>
    <path d="M410,310 L582,310" marker-end="url(#arH)"/>
    <path d="M585,360 L932,360" stroke-dasharray="10 4 2 4" marker-end="url(#arH)"/>
    <path d="M410,410 L63,410" marker-end="url(#arH)"/>
    <path d="M585,460 L757,460" stroke-dasharray="9 6" marker-end="url(#arH)"/>
    <path d="M760,510 L588,510" stroke-dasharray="9 6" marker-end="url(#arH)"/>
    <path d="M585,560 L1632,560" stroke-dasharray="9 6" marker-end="url(#arH)"/>
    <path d="M1635,610 L1113,610" marker-end="url(#arH)"/>
    <path d="M1635,660 L1288,660" marker-end="url(#arH)"/>
    <path d="M1635,710 L1463,710" marker-end="url(#arH)"/>
    <path d="M1635,730 C1680,730 1680,760 1635,760" marker-end="url(#arH)"/>
    <path d="M1635,830 L588,830" stroke-dasharray="9 6" marker-end="url(#arH)"/>
    <path d="M585,880 L932,880" stroke-dasharray="10 4 2 4" marker-end="url(#arH)"/>
    <path d="M60,930 L407,930" marker-end="url(#arH)"/>
    <path d="M410,970 L63,970" marker-end="url(#arH)"/>
  </g>

  <!-- ===== step numbers ===== -->
  <g font-size="12" font-weight="700" fill="#ffffff" text-anchor="middle">
    <g><circle cx="30" cy="110" r="13" fill="#3552c6"/><text x="30" y="114">1</text></g>
    <g><circle cx="30" cy="160" r="13" fill="#3552c6"/><text x="30" y="164">2</text></g>
    <g><circle cx="30" cy="210" r="13" fill="#3552c6"/><text x="30" y="214">3</text></g>
    <g><circle cx="30" cy="260" r="13" fill="#3552c6"/><text x="30" y="264">4</text></g>
    <g><circle cx="30" cy="310" r="13" fill="#3552c6"/><text x="30" y="314">5</text></g>
    <g><circle cx="30" cy="360" r="13" fill="#b5710d"/><text x="30" y="364">6</text></g>
    <g><circle cx="30" cy="410" r="13" fill="#3552c6"/><text x="30" y="414">7</text></g>
    <g><circle cx="30" cy="460" r="13" fill="#3552c6"/><text x="30" y="464">8</text></g>
    <g><circle cx="30" cy="510" r="13" fill="#3552c6"/><text x="30" y="514">9</text></g>
    <g><circle cx="30" cy="560" r="13" fill="#3552c6"/><text x="30" y="564">10</text></g>
    <g><circle cx="30" cy="610" r="13" fill="#0f7a63"/><text x="30" y="614">11</text></g>
    <g><circle cx="30" cy="660" r="13" fill="#0f7a63"/><text x="30" y="664">12</text></g>
    <g><circle cx="30" cy="710" r="13" fill="#0f7a63"/><text x="30" y="714">13</text></g>
    <g><circle cx="30" cy="745" r="13" fill="#0f7a63"/><text x="30" y="749">14</text></g>
    <g><circle cx="30" cy="830" r="13" fill="#3552c6"/><text x="30" y="834">15</text></g>
    <g><circle cx="30" cy="880" r="13" fill="#b5710d"/><text x="30" y="884">16</text></g>
    <g><circle cx="30" cy="930" r="13" fill="#3552c6"/><text x="30" y="934">17</text></g>
    <g><circle cx="30" cy="970" r="13" fill="#3552c6"/><text x="30" y="974">18</text></g>
  </g>

  <!-- ===== bottom legend ===== -->
  <g font-size="11.5" fill="#5b6480">
    <line x1="40" y1="1035" x2="80" y2="1035" stroke="#5b6480" stroke-width="2.2"/>
    <text x="88" y="1039">sync REST / API</text>
    <line x1="260" y1="1035" x2="300" y2="1035" stroke="#5b6480" stroke-width="2.2" stroke-dasharray="9 6"/>
    <text x="308" y="1039">async AMQP (RabbitMQ)</text>
    <line x1="530" y1="1035" x2="570" y2="1035" stroke="#5b6480" stroke-width="1.6" stroke-dasharray="1.5 5"/>
    <text x="578" y="1039">token / auth check</text>
    <line x1="770" y1="1035" x2="810" y2="1035" stroke="#5b6480" stroke-width="2.2" stroke-dasharray="10 4 2 4"/>
    <text x="818" y="1039">DB read/write</text>
  </g>
</svg>
